<svg viewBox="0 0 24 24" fill="none" xmlns="http://www.w3.org/2000/svg" id="Envelope-Alt--Streamline-Unicons.svg" height="24" width="24"><desc>Envelope Alt Streamline Icon: https://streamlinehq.com</desc><path d="M20.232 2.592H3.768c-0.9357 0 -1.833 0.3717 -2.4947 1.0333C0.6117 4.287 0.24 5.1843 0.24 6.12v11.76c0 0.9356 0.3717 1.833 1.0333 2.4947 0.6617 0.6616 1.559 1.0333 2.4947 1.0333h16.464c0.9356 0 1.833 -0.3717 2.4947 -1.0333 0.6616 -0.6617 1.0333 -1.5591 1.0333 -2.4947V6.12c0 -0.9357 -0.3717 -1.833 -1.0333 -2.4947 -0.6617 -0.6616 -1.5591 -1.0333 -2.4947 -1.0333ZM3.768 4.944h16.464c0.3119 0 0.611 0.1239 0.8316 0.3444 0.2205 0.2206 0.3444 0.5197 0.3444 0.8316L12 11.8589 2.592 6.12c0 -0.3119 0.1239 -0.611 0.3444 -0.8316 0.2206 -0.2205 0.5197 -0.3444 0.8316 -0.3444Zm17.64 12.936c0 0.3119 -0.1239 0.6111 -0.3444 0.8316s-0.5197 0.3444 -0.8316 0.3444H3.768c-0.3119 0 -0.611 -0.1239 -0.8316 -0.3444 -0.2205 -0.2205 -0.3444 -0.5197 -0.3444 -0.8316V8.8013l8.7965 5.3743c0.1787 0.1033 0.3816 0.1576 0.588 0.1576s0.4092 -0.0543 0.588 -0.1576l8.8435 -5.3743V17.88Z" fill="#e84b2a" stroke-width="1"></path></svg>